<svg xmlns="http://www.w3.org/2000/svg" width="24" height="18" viewBox="0 0 24 18">
  <path id="Shape_7" data-name="Shape 7" d="M1053.736,99.3l-8.276-8.276,6.125-6.125,2.17-2.17a1.457,1.457,0,0,1,.245.772v15A1.458,1.458,0,0,1,1053.736,99.3Zm-2.682-14.932-2.794,2.794-5.346,5.346-.939.938-9.031-9.031-1.5-1.5-.689-.689A1.457,1.457,0,0,1,1031.5,82h21a1.46,1.46,0,0,1,.716.207l-.755.755Zm-20.14-.923L1038.47,91l-8.244,8.244A1.458,1.458,0,0,1,1030,98.5v-15a1.457,1.457,0,0,1,.226-.744l.689.689ZM1039,91.53l.317.317.113.113,1.031,1.031,1.5,1.5.063-.063.016.016,1.406-1.406,1.484-1.485,8.258,8.258a1.461,1.461,0,0,1-.688.188h-21a1.458,1.458,0,0,1-.744-.226Z" transform="translate(-1030 -82)" fill="#b99403"/>
</svg>
