<svg xmlns="http://www.w3.org/2000/svg" width="15" height="14.999" viewBox="0 0 15 14.999">
  <path id="Shape_9" data-name="Shape 9" d="M674.371,460.977v-.958H680v.958Zm-.186-2.8,5.075-2.428.416.863-5.076,2.429Zm-.434-2.136L677.239,453l.52.593-3.489,3.041Zm-5.491,7.306v-5.7c1.448-1.32,3.208-2,4.415-3.469v12.638C671.469,465.342,669.709,464.666,668.261,463.347ZM665,457.659h2.915V463.3H665Zm12.759,9.747-.519.594-3.489-3.042.52-.593Zm-3.35-5.4,5.075,2.428-.414.864-5.076-2.429Z" transform="translate(-665 -453)" fill="#f5c506"/>
</svg>
