<svg xmlns="http://www.w3.org/2000/svg" width="19.019" height="18.977" viewBox="0 0 19.019 18.977">
  <path id="Shape_6" data-name="Shape 6" d="M907.958,83.578a2.444,2.444,0,0,0,3.46,3.453l1.4-1.4A4.828,4.828,0,0,1,913,86.883a4.831,4.831,0,0,1-6.16,4.7c-.014.014-.018.034-.032.048l-8.65,8.633a2.444,2.444,0,0,1-3.46-3.453l8.65-8.633c.015-.015.035-.019.05-.033a4.826,4.826,0,0,1-.185-1.259,4.832,4.832,0,0,1,6.145-4.7ZM896.485,97.871a.61.61,0,1,0,.612.61A.611.611,0,0,0,896.485,97.871Z" transform="translate(-893.981 -82)" fill="#b99403"/>
</svg>
