<svg id="Component_1_1" data-name="Component 1 – 1" xmlns="http://www.w3.org/2000/svg" width="83.015" height="83.016" viewBox="0 0 83.015 83.016">
  <path id="Shape_8_copy_4" data-name="Shape 8 copy 4" d="M161.852,89.766l-18.794.126,7.668-8.019,18.795-.127.713,18.782-7.668,8.018Zm32.3,10.228L194.026,81.2l18.781-.713,8.019,7.669-18.781.714.127,18.793ZM173.49,77.6l-18.794.126,7.669-8.018,18.794-.127.714,18.781L174.2,96.377Zm8.492,10.76-.128-18.794,18.782-.713,8.019,7.668-18.781.714L190,96.024Zm-27.639-26.43,18.781-.713L173,42.418l8.019,7.668.126,18.795-18.781.713Zm26.784-11.841,7.668-8.019.713,18.781,18.795-.126-7.669,8.019-18.795.126Zm-38.954.2,18.78-.713-.126-18.795,8.019,7.669.127,18.795-18.781.712Zm50.592-12.373,7.668-8.019.714,18.78,18.794-.125-7.668,8.018-18.795.127Z" transform="translate(-139.992 -27.992)" fill="#f5c506" opacity="0.502"/>
  <path id="Shape_8_copy_3" data-name="Shape 8 copy 3" d="M181.5,97.927,168,111.008v-11.1l13.5-13.082L195,99.913v11.1Zm0-16.839L168,94.169v-11.1l13.5-13.081L195,83.074v11.1ZM211.912,83,198.832,69.5,211.912,56h11.1l-13.08,13.5L223.007,83Zm-16.839,0L181.992,69.5,195.073,56h11.1l-13.08,13.5L206.168,83Zm-38.242,0L169.912,69.5,156.831,56h11.1l13.082,13.5L167.926,83Zm-16.839,0L153.072,69.5,139.992,56h11.1l13.081,13.5L151.088,83ZM168,55.927v-11.1l13.5,13.08L195,44.832v11.1L181.5,69.007Zm0-16.84v-11.1l13.5,13.081L195,27.992v11.1L181.5,52.169Z" transform="translate(-139.992 -27.992)" fill="#f5c506"/>
</svg>
