<svg xmlns="http://www.w3.org/2000/svg" width="163" height="132.993" viewBox="0 0 163 132.993">
  <path id="twitter" d="M1075,962.313l-15.281,15.313v2.553a33,33,0,0,1-1.1,8.068c-.356,21.066-7.052,49-34.556,71.051-54.1,43.371-112.062,5.1-112.062,5.1,45.844,0,45.844-15.314,45.844-15.314-10.187,0-30.562-20.417-30.562-20.417,5.094,5.1,15.281,0,15.281,0-25.469-15.314-25.469-30.627-25.469-30.627,5.094,5.1,15.281,0,15.281,0-25.469-20.418-10.187-45.941-10.187-45.941,5.094,25.522,71.313,35.731,71.313,35.731l.842-.422a60.647,60.647,0,0,1-.842-9.787c0-18.324,14.823-30.626,33.109-30.626a32.858,32.858,0,0,1,25.042,11.7l2.974-1.49L1069.905,947l-10.188,20.418Z" transform="translate(-911.999 -946.999)" fill="rgba(188,125,0,0.9)"/>
</svg>
